<svg width="121" height="120" viewBox="0 0 121 120" fill="none" xmlns="http://www.w3.org/2000/svg">
<g id="Crypto" clip-path="url(#clip0_4708_16081)">
<g id="Layer_x0020_1">
<g id="_1421344023328">
<path id="Ellipse 160" d="M120.5 60C120.5 93.1371 93.6371 120 60.5 120C27.3629 120 0.5 93.1371 0.5 60C0.5 26.8629 27.3629 0 60.5 0C93.6371 0 120.5 26.8629 120.5 60ZM3.9946 60C3.9946 91.2071 29.2929 116.505 60.5 116.505C91.7071 116.505 117.005 91.2071 117.005 60C117.005 28.7929 91.7071 3.4946 60.5 3.4946C29.2929 3.4946 3.9946 28.7929 3.9946 60Z" fill="#368AC5"/>
<circle id="Ellipse 161" cx="60.5" cy="60" r="49" fill="#368AC5"/>
<path id="Vector" d="M84.6353 45.4456C83.6945 37.1798 76.4992 34.529 67.4619 33.8961L67.2614 22.4115L60.2706 22.5345L60.4664 33.7166C58.6285 33.7485 56.7508 33.8177 54.8848 33.8875L54.6895 22.6312L47.7028 22.7531L47.9009 34.2346C46.3883 34.292 44.9021 34.3464 43.453 34.3724L43.4515 34.3365L33.8098 34.5013L33.942 41.9676C33.942 41.9676 39.1026 41.7793 39.0185 41.8754C41.8496 41.8267 42.8002 43.4548 43.0936 44.8685L43.3224 57.952C43.5176 57.9495 43.7726 57.9531 44.0623 57.9881C43.8291 57.9924 43.5806 57.9955 43.3237 58.0024L43.6418 76.3312C43.5335 77.2243 43.0346 78.6548 41.0561 78.6925C41.1473 78.77 35.9747 78.7801 35.9747 78.7801L34.7311 87.1532L43.8287 86.9941C45.5218 86.9668 47.188 86.9665 48.8239 86.9477L49.0298 98.5632L56.0129 98.4422L55.8118 86.9494C57.73 86.9556 59.5854 86.9384 61.3973 86.9053L61.594 98.3449L68.585 98.2218L68.3843 86.6269C80.1256 85.7475 88.2996 82.6434 89.128 71.5883C89.7973 62.687 85.5479 58.7949 78.8488 57.3092C82.8662 55.1744 85.3368 51.4939 84.6379 45.4458L84.6355 45.4449L84.6353 45.4456ZM75.2885 70.4529C75.4437 79.1332 60.5637 78.4055 55.8259 78.4927L55.5591 63.1026C60.2981 63.0213 75.131 61.399 75.2888 70.4528L75.2885 70.4529ZM71.6578 48.7965C71.7938 56.6936 59.3823 55.9887 55.436 56.0578L55.1929 42.1002C59.1393 42.0311 71.5136 40.56 71.6584 48.7964L71.6578 48.7965Z" fill="white"/>
</g>
</g>
</g>
<defs>
<clipPath id="clip0_4708_16081">
<rect width="120" height="120" fill="white" transform="translate(0.5)"/>
</clipPath>
</defs>
</svg>
