<svg width="28" height="32" viewBox="0 0 28 32" fill="none" xmlns="http://www.w3.org/2000/svg">
<g id="8 1" clip-path="url(#clip0_1663_944)">
<path id="Vector" d="M24.7889 19.4703C24.812 20.648 24.7912 21.1797 24.7912 22.384C23.9013 22.9053 23.0263 23.4242 22.1456 23.9327C19.9843 25.1833 17.8242 26.435 15.6559 27.6728C15.0492 28.0196 14.4146 28.3178 13.7928 28.6379C12.4868 27.889 11.1785 27.1446 9.8759 26.3911C7.7065 25.1359 5.54058 23.8738 3.37349 22.6128C3.21284 22.5192 3.06259 22.4094 2.90771 22.3077C2.91118 21.8431 2.91465 21.3773 2.91812 20.9127C2.97128 20.5486 3.04756 20.1869 3.07415 19.8216C3.17123 18.5087 3.24636 17.1934 3.34229 15.8793C3.45093 14.3814 3.56998 12.8835 3.68786 11.3856C3.71214 11.0712 3.83349 10.8389 4.13399 10.6586C5.97168 9.56527 7.78509 8.43376 9.62625 7.34502C11.0097 6.52673 12.4209 5.75583 13.8448 4.9491C14.7972 5.4692 15.7553 5.98698 16.7077 6.51517C18.1906 7.33578 19.6688 8.16447 21.1493 8.98854C21.9526 9.43582 22.7547 9.88426 23.5638 10.32C23.9729 10.5407 24.0758 10.9568 24.1243 11.2804C24.3809 13.0338 24.3774 14.794 24.6074 16.5508C24.6629 16.9715 24.7276 17.391 24.7877 17.8106M15.9668 19.1328C15.968 18.2752 16.0408 17.3795 16.0431 16.5219C17.8057 15.6019 19.0817 14.7212 20.8905 13.7769C20.8373 13.4753 21.2742 13.1493 21.2245 12.8639C21.2545 12.8153 21.0176 12.6755 21.0176 12.6755C21.0222 11.7046 21.3146 10.7765 21.3146 9.72592C18.6956 10.9534 16.1367 12.1519 13.6125 13.3343C12.8116 12.9552 12.0592 12.5992 11.3067 12.2432C11.2513 12.1993 11.1889 12.4466 11.1276 12.4154C9.62047 11.6618 8.34449 10.9649 6.83505 10.2171C6.74952 10.1744 6.51027 9.99175 6.41088 9.96055C6.38892 10.0253 6.46173 10.0218 6.46173 10.0599C6.46404 12.2917 6.29299 14.3745 6.29761 16.6063C6.29645 17.0073 6.29414 17.4095 6.29299 17.8106C6.29299 18.5017 6.29299 19.1941 6.29299 19.8852C6.32304 19.9684 6.35424 20.0528 6.38429 20.136C6.34153 20.4192 6.37389 20.6792 6.33228 20.9485C8.84032 22.3782 11.205 23.7432 13.6183 25.1197C16.2223 23.7698 18.7164 22.4765 21.2788 21.1485C21.2788 20.7821 21.3308 20.4619 21.3308 20.1187V17.3818C19.5486 18.2925 17.7537 19.2125 16.0477 20.084C16.0165 19.7708 16.0027 19.4472 15.9715 19.1339L15.9668 19.1328Z" fill="#2B84EB"/>
<path id="Vector_2" d="M13.8936 0C15.5267 0.960451 19.3962 3.11944 21.0374 4.06718C22.5411 4.93632 24.0517 5.78929 25.5577 6.65381C26.2419 7.04677 26.5851 7.2525 27.2659 7.65009C27.3873 7.72059 27.7455 7.95637 27.8889 8.07079C27.5132 8.24763 26.8718 8.61285 26.7423 8.69029C25.8905 9.19652 25.6871 9.33059 24.8052 9.76863C24.692 9.68426 24.5845 9.58833 24.4631 9.51782C22.4012 8.31813 20.3393 7.11843 18.274 5.92567C16.8177 5.08426 15.3556 4.25095 13.8959 3.41417C13.8959 2.27573 13.8947 1.13844 13.8936 0Z" fill="#D7FDFE"/>
<path id="Vector_3" d="M13.8936 0C13.8936 1.13844 13.8948 2.27573 13.8959 3.41417C13.2799 3.74934 12.5078 4.20241 11.8999 4.55261C8.85325 6.30476 5.77311 8.03959 2.72995 9.79637C2.02377 9.35717 1.27945 8.92029 0.576733 8.47531C0.375628 8.34702 0.191859 8.19099 0 8.04768C0.773215 7.5819 1.54065 7.10456 2.32196 6.6515C6.01813 4.50869 9.71893 2.37397 13.4174 0.235779" fill="#94EBFE"/>
<path id="Vector_4" d="M27.816 23.7812V24.1118C25.6686 25.3496 23.55 26.5701 21.4315 27.7929C19.0772 29.1521 16.7841 30.3518 14.424 31.7029C14.2622 31.7954 13.9883 31.9584 13.7987 32C13.7964 30.8789 13.7953 29.7589 13.793 28.6378C14.4148 28.3177 15.0493 28.0195 15.6561 27.6727C17.8243 26.4349 19.9845 25.1832 22.1458 23.9326C23.0265 23.4229 23.9014 22.9052 24.7913 22.3839C24.7913 21.1796 24.789 20.0007 24.7948 18.823C24.7948 18.6554 24.8376 18.4878 24.8595 18.3202V22.392C25.8708 22.867 26.844 23.3247 27.816 23.7812Z" fill="#5DCAFD"/>
<path id="Vector_5" d="M24.8051 9.76864C25.7217 9.27512 26.34 8.8914 27.2958 8.36552C27.4288 8.29271 27.6252 8.19216 27.8888 8.0708C27.8911 13.1042 27.8183 18.2301 27.8159 23.2635C27.8159 23.3848 27.8425 23.9905 27.8159 24.1118C26.7815 23.4796 25.472 22.7469 24.7913 22.3839C24.7974 21.7144 24.8021 20.9377 24.8051 20.0539C24.8051 19.9753 24.7994 18.7941 24.8005 18.7155C24.8005 18.6797 24.789 18.2636 24.7901 18.2266C24.7901 18.1758 24.7901 17.3332 24.7901 17.2823" fill="#94EBFE"/>
<path id="Vector_6" d="M13.7941 28.6379C13.7964 29.759 13.7976 30.8789 13.7999 32C13.0452 31.5897 12.2812 31.1945 11.5369 30.7668C9.37211 29.5232 7.21543 28.2669 5.05644 27.0152C3.44297 26.0801 2.34845 25.4664 0.813581 24.4632C0.457602 24.2309 0.0912206 24.0379 0.0288086 23.9535C0.989259 23.4057 1.94855 22.8567 2.90901 22.3088C3.06388 22.4105 3.21529 22.5203 3.37478 22.614C5.54071 23.8749 7.70779 25.1359 9.87719 26.3922C11.1797 27.1458 12.4881 27.8912 13.7941 28.639V28.6379Z" fill="#BFF8FE"/>
<path id="Vector_7" d="M2.91629 9.68777C2.91744 13.429 2.9186 17.1714 2.91975 20.9127C2.91629 21.3773 2.91282 21.8431 2.90935 22.3077C1.9489 22.8555 0.989605 23.4045 0.0291541 23.9524C0.0303099 20.21 0.0360888 16.4687 0.0314657 12.7263C0.0291541 11.2908 -0.00320766 9.8542 0.000259672 8.41757C0.000259672 8.31124 0.000259672 8.18719 0.000259672 8.04541" fill="#5DCAFD"/>
<path id="Vector_8" d="M24.7889 17.8128C24.7288 17.3933 24.6629 16.9737 24.6086 16.553C24.3786 14.7951 24.2642 13.1735 24.0076 11.4202C23.8897 10.7267 23.9753 10.543 23.5661 10.3222C22.7571 9.88648 21.955 9.43688 21.1517 8.99075C19.6711 8.16668 18.1929 7.33799 16.71 6.51739C15.7577 5.9892 14.7995 5.47257 13.8472 4.95131C12.4244 5.75689 11.0132 6.52895 9.62859 7.34724C7.78859 8.43482 5.97402 9.56748 4.13634 10.6609C3.83468 10.84 3.71448 11.0735 3.69021 11.3878C3.57232 12.8857 3.45327 14.3825 3.34463 15.8815C3.24986 17.1956 3.17473 18.5097 3.07649 19.8239C3.04875 20.1891 2.97363 20.5508 2.92046 20.9149C2.9193 17.1737 2.91815 13.4312 2.91699 9.69C5.96131 7.93437 8.41849 6.51161 11.4651 4.75945C12.0731 4.41041 12.9341 3.94116 13.8969 3.41528C15.3566 4.25207 16.8187 5.08538 18.275 5.92679C20.3403 7.1207 22.4022 8.31925 24.4641 9.51894C24.5855 9.58944 24.693 9.68537 24.8063 9.76975C24.8063 9.85643 24.8063 9.94311 24.8063 10.0298" fill="#044DDC"/>
<path id="Vector_9" d="M24.8618 18.0845C24.8618 18.0486 24.8641 18.0117 24.8653 17.9758C24.8653 18.0117 24.863 18.0486 24.8618 18.0845Z" fill="#5DCAFD"/>
<path id="Vector_10" d="M21.3136 12.8684C18.7559 14.134 16.108 15.3984 13.5468 16.6651C12.057 15.8769 10.5973 15.106 9.13867 14.3339C9.42993 14.0508 9.72003 13.7653 10.0124 13.4844C10.4424 13.0707 10.8735 12.6592 11.3046 12.2478C12.057 12.6037 12.8106 12.9597 13.6104 13.3388C16.1357 12.1553 18.6935 10.9567 21.3125 9.73047" fill="#CCFBFE"/>
<path id="Vector_11" d="M16.1323 20.0389C17.8383 19.1663 19.5442 18.2948 21.3264 17.3829C21.3264 18.3376 21.3264 19.2287 21.3264 20.1198C21.1577 20.1961 20.9843 20.2643 20.819 20.3475C18.4069 21.5796 15.9948 22.8128 13.5665 24.0552C12.4847 23.4496 11.4098 22.8486 10.335 22.2464C10.4274 22.095 10.5199 21.9448 10.6135 21.7934C10.669 21.7633 10.7233 21.7344 10.7788 21.7044C10.9521 21.5599 11.1255 21.4154 11.2977 21.271C11.3555 21.2143 11.4133 21.1577 11.4711 21.1011C11.6826 20.952 11.8941 20.804 12.1056 20.6549C12.5933 20.8907 13.0811 21.1265 13.5943 21.3761C14.4345 20.9323 15.2828 20.485 16.1312 20.0378L16.1323 20.0389Z" fill="#93EAFE"/>
<path id="Vector_12" d="M10.3361 22.2487C9.93736 22.1215 8.89832 21.4743 8.44757 21.2316C8.09159 21.0397 7.96214 20.9704 7.62003 20.7866C7.44204 20.6964 6.93928 20.4179 6.83641 20.3647C6.62491 20.2561 6.54747 20.218 6.28857 20.1209C6.28857 19.4297 6.28857 18.5051 6.28857 17.8128C6.67923 17.7088 7.06988 17.6059 7.35767 17.5296C8.2453 16.9194 9.04973 16.3658 9.8553 15.8121C11.1116 16.4363 12.368 17.0592 13.6127 17.6776C14.4091 17.3031 15.2667 16.8916 16.0433 16.5264C16.0433 16.7541 16.0456 16.9702 16.0456 17.2268C15.4134 17.7781 14.7038 18.393 14.0623 18.935C13.6543 19.2806 13.2244 19.6008 12.8048 19.9325C11.2827 19.1489 9.76168 18.3664 8.20139 17.5631V18.5976C8.26958 18.6484 8.35857 18.6854 8.44757 18.7524C8.54927 18.9986 9.61374 19.6193 9.8738 19.5788C9.89344 19.5753 9.90847 19.536 9.9258 19.5141C10.2691 19.6932 10.6112 19.8735 10.9544 20.0527C11.144 20.2411 11.3324 20.4295 11.5289 20.6248" fill="#C6F9FE"/>
<path id="Vector_13" d="M11.3059 12.2466C10.8748 12.6592 10.4425 13.0706 10.0137 13.4832C9.72133 13.7653 9.43123 14.0496 9.13998 14.3327C8.84294 14.186 8.54591 14.038 8.18877 13.8612V14.9522C7.55772 15.5035 6.92666 16.056 6.29561 16.6073C6.29214 14.3755 6.33491 12.0015 6.3326 9.76974C6.31064 9.83446 6.3326 9.73159 6.3326 9.76974" fill="#94EBFE"/>
<path id="Vector_14" d="M10.3362 22.2487C11.4111 22.8497 12.486 23.4519 13.5678 24.0575C15.9972 22.815 18.4082 21.5818 20.8203 20.3498C20.9856 20.2654 21.1578 20.1972 21.3277 20.1221C21.3277 20.4654 21.3277 20.8086 21.3277 21.175C18.7665 22.503 16.218 23.824 13.614 25.174C11.2008 23.7975 8.80252 22.4302 6.29564 20.9993C6.30373 20.6514 6.29102 20.3775 6.29102 20.0551C6.41931 20.1175 6.64006 20.2596 6.76488 20.3267C7.95649 20.967 9.14694 21.6084 10.3374 22.2487H10.3362Z" fill="#044DDC"/>
<path id="Vector_15" d="M8.18848 14.9534V13.8624C8.54561 14.0392 8.84265 14.186 9.13968 14.3339C10.5983 15.1048 12.0569 15.8769 13.5478 16.6651C16.109 15.3984 18.7569 14.1328 21.3146 12.8684C21.3146 13.3088 21.3297 13.4879 21.3146 13.8404C19.5058 14.7847 17.8069 15.6053 16.0443 16.5264C16.0177 16.5415 15.99 16.5565 15.9634 16.5727C15.1867 16.9379 14.4112 17.3031 13.6137 17.6788C12.3689 17.0616 11.1126 16.4374 9.85626 15.8133C9.30033 15.5279 8.74441 15.2412 8.18848 14.9557V14.9534Z" fill="#064EDD"/>
<path id="Vector_16" d="M8.44882 18.7536C8.35982 18.6866 8.26967 18.6496 8.20264 18.5988V17.5643C9.76294 18.3676 11.2839 19.1501 12.8061 19.9337C13.0673 20.0735 13.3274 20.2145 13.5932 20.3578C14.4265 19.9302 15.2332 19.5153 16.0411 19.1015C16.0457 19.4263 16.0504 19.6771 16.0457 20.0885C15.1974 20.5358 14.4392 20.9369 13.5978 21.3807C13.0835 21.1322 12.5969 20.8953 12.1092 20.6595C11.7254 20.4584 11.3406 20.2573 10.9569 20.0562C10.6136 19.877 10.2715 19.6967 9.92821 19.5176C9.43585 19.2633 8.94233 19.0102 8.44997 18.7559L8.44882 18.7536Z" fill="#064FDD"/>
<path id="Vector_17" d="M8.18849 14.9534C8.74442 15.2389 9.30035 15.5255 9.85628 15.811C9.05186 16.3646 8.24628 16.9182 7.35864 17.5285C7.07086 17.6048 6.6802 17.7088 6.28955 17.8117C6.29071 17.4106 6.29302 17.0084 6.29417 16.6073C6.92523 16.056 7.55628 15.5036 8.18734 14.9523L8.18849 14.9534Z" fill="#C8FAFE"/>
<path id="Vector_18" d="M16.0397 19.0992C15.233 19.5142 14.4251 19.9279 13.5918 20.3556C13.3259 20.2123 13.0659 20.0724 12.8047 19.9314C13.2242 19.5997 13.6542 19.2796 14.0622 18.934C14.7036 18.3919 15.4133 17.7759 16.0455 17.2257C16.0455 16.9692 16.0432 16.7519 16.0432 16.5253C16.0166 16.5404 16.0698 16.5103 16.0432 16.5253C16.042 17.3829 16.0397 18.2417 16.0386 19.0992H16.0397Z" fill="#93EAFE"/>
<path id="Vector_19" d="M10.3362 22.2487C9.14573 21.6073 7.95528 20.9658 6.76367 20.3267L10.3362 22.2487Z" fill="#C4F8FE"/>
<path id="Vector_20" d="M10.3362 22.2487C10.1397 22.0533 11.1441 20.2422 10.9545 20.0538C11.3382 20.2549 11.7231 20.456 12.1068 20.6571" fill="#C4F8FE"/>
<path id="Vector_21" d="M8.44873 18.7537C8.94109 19.0079 9.43461 19.261 9.92697 19.5153C9.90963 19.5384 9.89576 19.5777 9.87496 19.58C9.61491 19.6205 8.55044 18.9998 8.44873 18.7537Z" fill="#C4F8FE"/>
</g>
<defs>
<clipPath id="clip0_1663_944">
<rect width="27.8889" height="32" fill="white"/>
</clipPath>
</defs>
</svg>
