<svg width="30" height="30" viewBox="0 0 30 30" fill="none" xmlns="http://www.w3.org/2000/svg">
<g clip-path="url(#clip0_859_748)">
<path d="M12.2629 12.5719C11.9246 12.5433 11.5856 12.6175 11.2902 12.7849C10.9948 12.9522 10.7568 13.2048 10.6074 13.5097C10.4581 13.8146 10.4042 14.1575 10.453 14.4934C10.5018 14.8294 10.651 15.1428 10.8809 15.3926C11.1108 15.6424 11.4109 15.8169 11.7416 15.8933C12.0724 15.9697 12.4186 15.9444 12.7348 15.8207C13.0509 15.697 13.3224 15.4808 13.5136 15.2002C13.7047 14.9196 13.8067 14.5879 13.8061 14.2484C13.8149 14.037 13.7819 13.8259 13.7091 13.6272C13.6363 13.4286 13.525 13.2462 13.3817 13.0905C13.2384 12.9348 13.0659 12.8089 12.8739 12.7199C12.6819 12.631 12.4743 12.5807 12.2629 12.5719ZM17.7838 12.5719C17.4455 12.5433 17.1064 12.6175 16.811 12.7849C16.5157 12.9522 16.2777 13.2048 16.1283 13.5097C15.9789 13.8146 15.9251 14.1575 15.9739 14.4934C16.0227 14.8294 16.1719 15.1428 16.4018 15.3926C16.6317 15.6424 16.9317 15.8169 17.2625 15.8933C17.5933 15.9697 17.9395 15.9444 18.2556 15.8207C18.5718 15.697 18.8433 15.4808 19.0344 15.2002C19.2256 14.9196 19.3276 14.5879 19.327 14.2484C19.3358 14.037 19.3028 13.8259 19.23 13.6272C19.1572 13.4286 19.0459 13.2462 18.9026 13.0905C18.7593 12.9348 18.5868 12.8089 18.3948 12.7199C18.2028 12.631 17.9952 12.5807 17.7838 12.5719Z" fill="white"/>
<path d="M25.1346 4.54772e-06H4.86524C4.04462 -0.00140115 3.25703 0.32312 2.6756 0.902226C2.09418 1.48133 1.76652 2.26762 1.76465 3.08824V23.37C1.76652 24.1906 2.09418 24.9769 2.6756 25.556C3.25703 26.1351 4.04462 26.4596 4.86524 26.4582H22.0182L21.2161 23.6832L23.152 25.4682L24.982 27.1447L28.2352 30V3.08824C28.2334 2.26762 27.9057 1.48133 27.3243 0.902226C26.7429 0.32312 25.9553 -0.00140115 25.1346 4.54772e-06ZM19.2961 19.5882C19.2961 19.5882 18.7517 18.9432 18.2982 18.3732C19.3916 18.1186 20.3601 17.4865 21.0335 16.5882C20.4887 16.9467 19.9054 17.2427 19.2944 17.4706C18.5902 17.7686 17.8542 17.985 17.1008 18.1156C15.8052 18.3521 14.477 18.347 13.1832 18.1006C12.424 17.9533 11.6798 17.7374 10.9597 17.4556C10.5805 17.311 10.2117 17.1406 9.85582 16.9456C9.81082 16.9156 9.76759 16.9006 9.71994 16.8706C9.69708 16.8594 9.67645 16.8442 9.65906 16.8256C9.38641 16.6756 9.23553 16.5706 9.23553 16.5706C9.88512 17.4506 10.8212 18.0765 11.8826 18.3406C11.4291 18.9106 10.8688 19.5856 10.8688 19.5856C9.972 19.6112 9.08259 19.4169 8.2783 19.0194C7.47401 18.6219 6.77931 18.0335 6.25494 17.3056C6.30492 14.2626 7.05009 11.2714 8.43347 8.56059C9.65459 7.61106 11.1388 7.06109 12.6838 6.98559L12.8347 7.16206C11.3807 7.51825 10.0226 8.18901 8.85612 9.12706C8.85612 9.12706 9.18877 8.95059 9.74818 8.69206C10.8362 8.19972 11.9947 7.88085 13.1814 7.74706C13.266 7.72969 13.3519 7.71966 13.4382 7.71706C14.4519 7.58609 15.4776 7.57602 16.4938 7.68706C18.0904 7.86765 19.6367 8.35671 21.0467 9.12706C19.9394 8.23363 18.6558 7.58443 17.2799 7.22206L17.4917 6.98206C19.0367 7.05756 20.5209 7.60753 21.742 8.55706C23.1254 11.2679 23.8706 14.2591 23.9205 17.3021C23.3931 18.0298 22.6965 18.6182 21.8908 19.0165C21.0851 19.4148 20.1946 19.6111 19.2961 19.5882Z" fill="white"/>
</g>
<defs>
<clipPath id="clip0_859_748">
<rect width="30" height="30" fill="white"/>
</clipPath>
</defs>
</svg>
