<svg width="30" height="30" viewBox="0 0 30 30" fill="none" xmlns="http://www.w3.org/2000/svg">
<g clip-path="url(#clip0_859_759)">
<path d="M28.831 6.30293C27.748 5.02293 25.749 4.50293 21.931 4.50293H8.07C4.164 4.50293 2.131 5.05893 1.052 6.42193C0 7.74793 0 9.70693 0 12.4169V17.5829C0 22.8339 1.248 25.4999 8.07 25.4999H21.93C25.241 25.4999 27.076 25.0389 28.263 23.9089C29.481 22.7499 30 20.8579 30 17.5829V12.4169C30 9.55893 29.919 7.58893 28.831 6.30293ZM19.26 15.7129L12.966 18.9829C12.8188 19.0598 12.6544 19.0975 12.4885 19.0924C12.3225 19.0873 12.1607 19.0397 12.0185 18.954C11.8763 18.8684 11.7585 18.7476 11.6765 18.6032C11.5944 18.4589 11.5509 18.2959 11.55 18.1299V11.6089C11.55 11.4433 11.5928 11.2805 11.6743 11.1363C11.7558 10.9921 11.8731 10.8714 12.015 10.7859C12.1571 10.7001 12.3189 10.652 12.4848 10.6464C12.6508 10.6408 12.8154 10.6778 12.963 10.7539L19.257 14.0049C19.4138 14.0857 19.5453 14.208 19.6371 14.3586C19.7289 14.5091 19.7775 14.6821 19.7775 14.8584C19.7775 15.0348 19.7289 15.2077 19.6371 15.3583C19.5453 15.5088 19.4138 15.6312 19.257 15.7119L19.26 15.7129Z" fill="white"/>
</g>
<defs>
<clipPath id="clip0_859_759">
<rect width="30" height="30" fill="white"/>
</clipPath>
</defs>
</svg>
