<svg width="32" height="32" viewBox="0 0 32 32" fill="none" xmlns="http://www.w3.org/2000/svg">
<g id="2 3424" clip-path="url(#clip0_1663_1007)">
<path id="Vector" d="M1.45843 22.6276C0.691265 21.1163 0.273754 19.497 0.100079 17.8258C-0.36919 13.3058 0.807432 9.24588 3.72311 5.75294C6.50997 2.41412 10.1123 0.535959 14.4438 0.0759084C14.5876 0.0770586 14.7463 0.0425547 14.8901 0.0437048C15.1213 0.0172519 15.3375 0.0276031 15.5687 0C15.9414 0 16.314 0 16.6867 0C16.8523 0 17.0191 0.0218524 17.1168 0.0345038C17.3032 0.0506056 17.3917 0.0667074 17.5527 0.0759084C17.8219 0.108112 18.0933 0.131115 18.3613 0.173669C20.6202 0.531359 22.7354 1.26744 24.6378 2.56248C23.6187 3.46188 22.5985 4.36013 21.5795 5.25953C21.4231 5.18938 21.2643 5.12382 21.1102 5.05021C19.0928 4.0818 16.9455 3.76092 14.7521 3.99209C11.4315 4.34173 8.67574 5.84035 6.57208 8.44999C4.93539 10.4811 4.05781 12.8124 3.95199 15.4324C3.88989 16.9805 4.08771 18.4848 4.56618 19.9547C3.52988 20.8461 2.49473 21.7363 1.45843 22.6276Z" fill="#FED13F"/>
<path id="Vector_2" d="M1.4585 22.6276C2.4948 21.7363 3.52995 20.8461 4.56625 19.9547C4.61686 20.0709 4.67207 20.1847 4.71692 20.3032C5.26901 21.7547 6.05342 23.0624 7.14033 24.1803C7.2818 24.3355 7.41637 24.4989 7.56819 24.6449C7.88449 24.9509 8.20999 25.2476 8.53203 25.5478C7.97535 25.9986 7.41637 26.4472 6.86314 26.9026C6.40422 27.2799 5.95221 27.6652 5.49674 28.047C3.72318 26.5587 2.37288 24.7553 1.4585 22.6276Z" fill="#FAF270"/>
<path id="Vector_3" d="M8.53068 25.5478C8.20863 25.2476 7.88313 24.9509 7.56684 24.6449C7.41616 24.4989 7.28159 24.3356 7.13897 24.1803C7.04236 23.979 6.73181 23.7363 6.72491 23.5362C5.10777 21.0957 4.50739 18.463 4.918 15.5589C5.42752 11.9567 7.25859 9.15848 10.3709 7.25502C12.8335 5.7495 15.5283 5.28485 18.3531 5.80471C21.1561 6.32111 23.476 7.72427 25.2357 9.97852C27.1404 12.4168 28.1112 15.0563 27.7788 18.1479C27.7316 18.5895 27.5499 19.1634 27.5154 19.6074C27.0645 21.0761 26.3192 22.3872 25.3645 23.5799C23.6174 25.7629 21.347 27.1637 18.6384 27.756C15.12 28.5266 11.8823 27.901 8.92518 25.8204C8.81132 25.7399 8.6779 25.6421 8.52838 25.5489L8.53068 25.5478ZM18.7994 11.8946L18.6694 11.959L15.8135 13.3461C15.6663 13.3035 15.4409 13.1977 15.304 13.1333C14.6749 12.8377 14.1343 12.5134 13.5075 12.2109C11.834 11.3587 10.1605 10.5076 8.44096 9.63118V16.5262C8.43521 17.2784 8.41911 18.0306 8.42946 18.7827C8.43521 19.1726 8.48812 19.5625 8.52033 19.9524C8.47892 20.2515 8.74806 20.4964 8.7078 20.7897C11.2083 22.1779 13.3349 23.5868 15.779 24.9428C18.337 23.5707 20.8674 22.2124 23.3955 20.8553V17.3267C21.554 18.2675 19.8104 19.1588 18.0656 20.0502C18.0644 19.7017 18.0621 19.3544 18.061 19.0059C18.0564 18.2019 17.8597 17.329 17.8562 16.525C18.0012 16.4365 18.3301 16.2582 18.4796 16.1789C19.6126 15.575 20.6351 15.0276 21.7691 14.4238C22.2947 14.1443 22.7997 13.8602 23.2988 13.5796C23.2988 13.2437 23.3851 12.9792 23.3863 12.7089L23.3483 12.4904L23.3334 9.76344C22.0981 10.342 19.8483 11.4081 18.6717 11.959" fill="#EF9508"/>
<path id="Vector_4" d="M27.5177 19.6073C27.5522 19.1645 27.5763 18.7194 27.6235 18.2778C27.9559 15.1862 27.1415 12.4167 25.2369 9.97846C23.476 7.72421 21.1572 6.32105 18.3543 5.80465C15.5294 5.28479 12.8346 5.74944 10.3721 7.25496C7.25858 9.15842 5.42751 11.9567 4.91913 15.5589C4.50852 18.4629 5.10891 21.0956 6.72605 23.5362C6.87097 23.7995 7.04349 23.979 7.14011 24.1802C6.05435 23.0623 5.26993 21.7546 4.71785 20.3032C4.673 20.1847 4.61779 20.0708 4.56718 19.9547C4.08871 18.4848 3.89088 16.9793 3.95299 15.4324C4.05881 12.8124 4.93523 10.4811 6.57307 8.44994C8.67673 5.8403 11.4314 4.34283 14.7531 3.99204C16.9476 3.76087 19.0938 4.0829 21.1112 5.05016C21.2653 5.12377 21.4241 5.19048 21.5805 5.25949C23.6002 6.37626 25.2461 7.88408 26.4169 9.8876C28.1709 12.9699 28.5194 16.2121 27.52 19.6062L27.5177 19.6073Z" fill="#E17603"/>
<path id="Vector_5" d="M26.4161 9.88766C25.2452 7.88299 23.5993 6.37632 21.5796 5.25955C22.5986 4.36015 23.6177 3.4619 24.6379 2.5625C26.1055 3.40899 27.3247 4.54302 28.3817 5.85301C28.7658 6.32917 29.0913 6.85248 29.4433 7.35393C28.5197 8.15327 27.6421 8.8744 26.7151 9.67029C26.6438 9.73125 26.5012 9.84281 26.4161 9.88766Z" fill="#F9F696"/>
<path id="Vector_6" d="M18.067 20.0525C19.8107 19.1611 21.5544 18.2698 23.3969 17.329C23.3969 18.2583 23.3969 19.1071 23.3969 19.9559C20.8332 21.2613 18.2706 22.5655 15.6804 23.8836C14.5901 23.2751 13.4813 22.6564 12.3726 22.0376C12.9534 21.5407 13.5342 21.0439 14.1162 20.5482C14.6418 20.7989 15.1675 21.0508 15.7391 21.3234C16.4982 20.9093 17.2826 20.4803 18.067 20.0525Z" fill="#FED03E"/>
<path id="Vector_7" d="M14.1147 20.5481C13.5339 21.045 12.9531 21.5418 12.3711 22.0375C11.0875 21.3429 9.72454 20.6482 8.44095 19.9524C8.40875 19.5625 8.43405 19.1726 8.42945 18.7827C8.4191 18.0305 8.43635 17.2783 8.44095 16.5261C9.0678 15.9798 9.69464 15.4335 10.3215 14.8872C10.3525 14.9079 10.3824 14.9286 10.4135 14.9493C10.3721 15.0873 10.3318 15.2242 10.2766 15.4082C10.4468 15.3473 10.5699 15.3036 10.6274 15.2829C10.961 15.7981 11.2278 16.318 11.5947 16.7516C12.1744 17.4347 12.8254 18.0581 13.4384 18.7148C13.5385 18.8229 13.5926 18.9748 13.6685 19.1059C12.5655 18.5607 11.4613 18.0156 10.2835 17.4336V18.5239C11.5476 19.1921 12.8311 19.8696 14.1147 20.5481Z" fill="#FAF373"/>
<path id="Vector_8" d="M10.3229 14.8873C9.69607 15.4336 9.06922 15.9799 8.44238 16.5262C8.44238 14.2628 8.44238 12.0005 8.44238 9.63123C10.1619 10.5065 11.8354 11.3587 13.5089 12.211C13.3364 12.3593 13.1638 12.5077 12.9913 12.6561C12.4116 13.1713 11.8319 13.6854 11.2511 14.2007C10.9417 14.0546 10.7025 13.9408 10.2781 13.7406C10.3034 14.2225 10.2884 14.5319 10.3229 14.8885V14.8873Z" fill="#FED13F"/>
<path id="Vector_9" d="M8.44244 19.9524C9.72603 20.6471 11.089 21.3417 12.3726 22.0376C13.4813 22.6563 14.5901 23.2751 15.6805 23.8835C18.2695 22.5655 20.8332 21.2601 23.3969 19.9558C23.3969 20.2411 23.3969 20.5275 23.3969 20.8575C20.8677 22.2147 18.3385 23.5718 15.7805 24.9451C13.3364 23.5879 10.9441 22.3274 8.44244 20.9381C8.43209 20.5597 8.45279 20.348 8.44244 19.9535V19.9524Z" fill="#E17603"/>
<path id="Vector_10" d="M17.9048 15.4025C19.0504 14.8298 20.1465 14.2352 21.292 13.6612C21.8936 13.3611 22.4491 13.0839 23.0506 12.7837" fill="#E17704"/>
<path id="Vector_11" d="M23.0493 12.7848C23.1149 12.7446 23.3415 12.6445 23.3955 12.6399C23.3955 12.9113 23.384 13.2518 23.384 13.5876C22.8848 13.8682 22.3707 14.1696 21.8451 14.4502C20.7122 15.054 19.6299 15.5796 18.4969 16.1834L18.0656 16.4284C17.9035 16.5181 17.7838 16.5837 17.6274 16.6619C16.9799 16.9862 16.3404 17.3301 15.7204 17.6556C15.4409 17.5164 15.2098 17.4037 14.982 17.2876C13.4339 16.4963 11.8858 15.7027 10.3376 14.9114L10.3227 14.8884C10.2882 14.533 10.2778 14.2179 10.2778 13.7406C10.7022 13.9407 10.9415 14.0545 11.2509 14.2006C12.4309 14.8044 13.6099 15.4094 14.7899 16.0132C15.089 16.1926 15.3926 16.3491 15.6905 16.5273C16.399 16.1593 17.9046 15.4036 17.9046 15.4036" fill="#E17704"/>
<path id="Vector_12" d="M14.2277 19.4107L13.6411 19.0932C13.5652 18.9621 13.5399 18.8241 13.4387 18.716C12.8268 18.0593 12.1746 17.4371 11.5949 16.7527C11.2269 16.3191 10.9612 15.7993 10.6277 15.284L10.2769 15.4094C10.3321 15.2254 10.2803 15.0264 10.3217 14.8895C11.8445 15.6693 13.4594 16.5101 14.9822 17.2887C15.2111 17.406 15.4411 17.5176 15.7206 17.6567C16.3405 17.3312 16.98 16.9885 17.6276 16.663C17.784 16.5848 17.899 16.5227 18.0658 16.4295L18.052 17.2841C17.7104 17.559 17.3688 17.8339 17.0283 18.1099C16.3348 18.6734 15.6435 19.2393 14.9511 19.8029" fill="#FAF378"/>
<path id="Vector_13" d="M23.3958 12.64C22.731 12.9838 16.3993 16.1582 15.6897 16.5262L14.7891 16.0121C14.6338 15.7326 14.5326 15.3945 14.3118 15.184C13.5757 14.4848 13.0489 13.6992 12.9902 12.6561C13.1628 12.5077 13.3353 12.3593 13.5078 12.211C14.1335 12.5134 15.3872 13.1161 15.3872 13.1161L15.7851 13.2656L17.4655 12.4881L23.374 9.69678L23.3947 12.6411L23.3958 12.64Z" fill="#FAF380"/>
<path id="Vector_14" d="M13.9986 19.2876C14.3965 19.5004 14.5541 19.5901 14.9521 19.8018C15.6192 20.0214 15.8722 20.179 16.3921 19.8593C16.9223 19.5326 17.5031 19.2876 18.0621 19.007C18.0633 19.3555 18.0656 19.7028 18.0667 20.0513C17.2823 20.4792 16.4979 20.9082 15.7388 21.3222C15.1671 21.0496 14.6415 20.7978 14.1159 20.547C12.8323 19.8685 11.5487 19.191 10.2847 18.5228V17.4325C11.4624 18.0145 12.5655 18.5596 13.6696 19.1048L13.7202 19.1312C13.8387 19.1979 13.818 19.1853 14.0009 19.2865L13.9986 19.2876Z" fill="#E17704"/>
<path id="Vector_15" d="M18.0621 19.0081C17.5031 19.2887 15.5652 20.1007 14.9521 19.8028C15.6445 19.2381 16.3369 18.6734 17.0293 18.1099C17.3697 17.8338 17.7113 17.5589 18.0529 17.2841C18.0529 17.2841 18.0586 18.4342 18.0621 19.0081Z" fill="#FED13F"/>
<path id="Vector_16" d="M23.2217 12.7205C23.2734 12.6664 23.324 12.6135 23.3758 12.5594L23.2217 12.7205Z" fill="#F9F388"/>
<path id="Vector_17" d="M12.9912 12.6561C13.0498 13.6992 13.5766 14.4859 14.3127 15.184C14.5347 15.3945 14.6348 15.7326 14.79 16.0121C13.61 15.4083 12.431 14.8033 11.251 14.1995C11.8307 13.6854 12.4103 13.1702 12.9912 12.6549V12.6561Z" fill="#FAF37A"/>
<path id="Vector_18" d="M16.3921 19.8604L15.7756 20.2124L14.9521 19.8018L18.0621 19.0082L16.3921 19.8604Z" fill="#FED13F"/>
<path id="Vector_19" d="M31.9414 17.5383L31.969 17.1507L32.0001 16.6895V15.3128C32.0001 15.1966 31.9886 15.0034 31.9679 14.8251C31.9518 14.6411 31.9276 14.5422 31.923 14.4467C31.6642 11.8831 30.8741 9.50692 29.4421 7.35388C28.5185 8.15437 27.5765 8.8594 26.6507 9.65644C26.5794 9.71739 26.5011 9.84391 26.4149 9.88876C28.1689 12.9711 28.5174 16.2133 27.5179 19.6073C27.067 21.0761 26.3217 22.3872 25.3671 23.5799C23.62 25.7628 21.3495 27.1637 18.6409 27.756C15.1225 28.5266 11.8572 27.8296 8.90011 25.7502C8.78624 25.6697 8.65397 25.6156 8.5309 25.5489C7.97422 25.9998 7.41524 26.4483 6.86201 26.9037C6.40309 27.281 5.95107 27.6663 5.49561 28.0481C5.58762 28.1367 5.67388 28.2321 5.7728 28.3115C9.64081 31.4261 14.0287 32.5716 18.9204 31.7366C25.8007 30.5635 31.4365 24.408 31.9403 17.5394" fill="#FED13F"/>
</g>
<defs>
<clipPath id="clip0_1663_1007">
<rect width="32" height="32" fill="white"/>
</clipPath>
</defs>
</svg>
