<svg width="27" height="27" viewBox="0 0 27 27" fill="none" xmlns="http://www.w3.org/2000/svg">
<path d="M13.725 25.875V7.97506M11.6303 6.90123C11.8531 6.95095 12.0879 6.89 12.2484 6.73046C12.4088 6.57092 12.47 6.33731 12.4201 6.1158C12.2201 5.30336 11.4834 2.58286 10.7268 1.83056C9.78433 0.893284 8.25035 0.889381 7.3125 1.82202C6.37472 2.75459 6.37851 4.28004 7.32109 5.21738C8.08998 5.982 10.8133 6.70236 11.6303 6.90123ZM13.9178 6.11573C13.8678 6.33734 13.9291 6.57085 14.0895 6.7304C14.25 6.88994 14.4849 6.9508 14.7076 6.90116C15.5246 6.70227 18.2603 5.96962 19.0168 5.21732C19.9593 4.28005 19.9633 2.75459 19.0254 1.82195C18.0876 0.889383 16.5537 0.893155 15.6111 1.83049C14.8422 2.59511 14.1178 5.30331 13.9178 6.11573ZM2.025 14.24H24.975C25.4721 14.24 25.875 13.8393 25.875 13.345V8.87006C25.875 8.37576 25.4721 7.97506 24.975 7.97506H2.025C1.52794 7.97506 1.125 8.37576 1.125 8.87006V13.345C1.125 13.8393 1.52794 14.24 2.025 14.24ZM23.625 14.24V24.98C23.625 25.4743 23.2221 25.875 22.725 25.875H4.275C3.77794 25.875 3.375 25.4743 3.375 24.98V14.24H23.625Z" stroke="white" stroke-width="2" stroke-linecap="round" stroke-linejoin="round"/>
</svg>
