<svg width="121" height="120" viewBox="0 0 121 120" fill="none" xmlns="http://www.w3.org/2000/svg">
<path d="M60.5 119.464C93.3412 119.464 119.964 92.8411 119.964 59.9999C119.964 27.1587 93.3412 0.535645 60.5 0.535645C27.6588 0.535645 1.03571 27.1587 1.03571 59.9999C1.03571 92.8411 27.6588 119.464 60.5 119.464Z" fill="#64B3DF"/>
<path d="M38.9234 94V29.488H65.3234C72.0434 29.488 77.5474 31.472 81.8354 35.44C86.1234 39.408 88.2674 44.496 88.2674 50.704C88.2674 56.976 86.1234 62.096 81.8354 66.064C77.5474 70.032 72.0434 72.016 65.3234 72.016H51.2114V94H38.9234ZM51.2114 39.28V62.128H63.4034C67.0514 62.128 69.9954 61.072 72.2354 58.96C74.5394 56.848 75.6914 54.096 75.6914 50.704C75.6914 47.376 74.5394 44.656 72.2354 42.544C69.9954 40.368 67.0514 39.28 63.4034 39.28H51.2114Z" fill="white"/>
</svg>
